<svg width="25" height="25" viewBox="0 0 25 25" fill="none" xmlns="http://www.w3.org/2000/svg">
<g clip-path="url(#clip0_207_1559)">
<path d="M12.511 6.13094C12.2911 6.13094 12.0737 6.14215 11.8594 6.1641C11.6452 6.18604 11.4339 6.21856 11.2262 6.26125C11.0186 6.30393 10.8146 6.35679 10.6147 6.41918L10.0279 6.63463L9.46929 6.90437L8.94214 7.22513L8.44958 7.59355L7.99507 8.00641L7.58181 8.46052L7.21299 8.95252L6.89183 9.47919L6.62192 10.0372C6.54079 10.228 6.46863 10.4237 6.40616 10.6234C6.34369 10.8232 6.29083 11.0271 6.24806 11.2345C6.20529 11.442 6.17278 11.653 6.15075 11.8671C6.12873 12.0812 6.11768 12.2984 6.11768 12.518C6.11768 12.7376 6.12889 12.9548 6.15075 13.1689C6.17249 13.3813 6.20497 13.5924 6.24806 13.8015C6.29083 14.0097 6.34369 14.2128 6.40616 14.4126C6.46863 14.6123 6.54071 14.8079 6.62192 14.9988L6.89183 15.5568L7.21299 16.0834L7.58181 16.5755L7.99507 17.0296L8.44958 17.4425L8.94214 17.8109L9.46929 18.1317L10.0279 18.4014L10.6147 18.6168L11.2262 18.7748C11.4355 18.8178 11.6469 18.8503 11.8594 18.872C12.0759 18.8941 12.2934 18.9051 12.511 18.9051C12.7308 18.9051 12.9483 18.8939 13.1624 18.872C13.375 18.8503 13.5863 18.8178 13.7956 18.7748L14.4073 18.6168L14.994 18.4014L15.5525 18.1317L16.0798 17.8109L16.5723 17.4425L17.0269 17.0296L17.4402 16.5755L17.809 16.0834L18.1302 15.5568L18.4001 14.9988L18.6158 14.4126C18.6783 14.2128 18.7312 14.0089 18.7739 13.8015L18.8712 13.1688C18.8932 12.9547 18.9044 12.7375 18.9044 12.5179C18.9044 12.2983 18.8932 12.0811 18.8712 11.867C18.8495 11.6546 18.817 11.4435 18.7739 11.2344C18.7312 11.0262 18.6783 10.8232 18.6158 10.6234L18.4001 10.0371L18.1302 9.47911L17.809 8.95244L17.4402 8.46044L17.0269 8.00633L16.5723 7.59347L16.0798 7.22505L15.5525 6.90429L14.994 6.63455L14.4073 6.4191L13.7956 6.26117L13.1624 6.16402C12.946 6.14191 12.7285 6.13084 12.511 6.13086V6.13094ZM12.511 8.3355C12.6563 8.3355 12.7998 8.34271 12.941 8.35697L13.3575 8.42L13.7598 8.52251L14.145 8.66243L14.5113 8.83783L14.8557 9.04646L15.1776 9.28649L15.4745 9.55576L15.744 9.85225L15.9842 10.1739L16.1931 10.5188L16.3685 10.8848C16.4212 11.01 16.468 11.1384 16.5087 11.2697C16.5493 11.401 16.5835 11.5351 16.6112 11.6717C16.6388 11.8084 16.6592 11.9474 16.6742 12.0886L16.6957 12.5184C16.6957 12.6636 16.6885 12.8069 16.6742 12.9482C16.66 13.0895 16.639 13.2285 16.6112 13.3651C16.5834 13.5016 16.5491 13.6358 16.5087 13.7671L16.3685 14.1521L16.1931 14.5181L15.9842 14.8629L15.744 15.1846L15.4745 15.4811L15.1776 15.7503L14.8557 15.9904L14.5113 16.199L14.145 16.3744L13.7598 16.5143L13.3575 16.6168L12.941 16.6798C12.7981 16.6941 12.6545 16.7013 12.5109 16.7012C12.3672 16.7013 12.2236 16.6941 12.0806 16.6798L11.6642 16.6168C11.5275 16.5891 11.3932 16.5548 11.2618 16.5143L10.8766 16.3744L10.5103 16.199L10.1659 15.9904L9.84395 15.7503L9.54714 15.4811L9.27764 15.1846L9.03737 14.8629L8.82849 14.5181L8.65309 14.1521L8.51293 13.7671L8.41042 13.3651L8.34739 12.9482C8.33305 12.8054 8.32589 12.6619 8.32592 12.5184C8.32589 12.3749 8.33305 12.2314 8.34739 12.0886C8.36156 11.9474 8.38263 11.8083 8.41042 11.6717C8.43793 11.5361 8.47217 11.402 8.51302 11.2698L8.65317 10.8849L8.82857 10.5188L9.03745 10.174L9.27772 9.85233L9.54722 9.55584L9.84403 9.28658L10.166 9.04654L10.5104 8.83791L10.8766 8.66251C11.0027 8.60957 11.1313 8.56288 11.262 8.52259L11.6643 8.42008C11.801 8.39237 11.9402 8.37122 12.0808 8.35705C12.2238 8.34272 12.3674 8.33556 12.511 8.33558L12.511 8.3355Z" fill="#298FFE"/>
<path d="M19.1636 4.31396C19.1129 4.31398 19.0621 4.31654 19.0116 4.32165C18.9611 4.32676 18.9109 4.3344 18.8611 4.34456C18.8114 4.35471 18.7622 4.36735 18.7137 4.38244C18.6652 4.39754 18.6175 4.41508 18.5707 4.43498C18.524 4.45491 18.4782 4.47717 18.4337 4.5017C18.3891 4.52617 18.3458 4.55288 18.3039 4.58171C18.262 4.61057 18.2216 4.64152 18.1828 4.67445C18.144 4.70735 18.1068 4.74218 18.0714 4.77881C18.0361 4.81546 18.0026 4.85387 17.971 4.8939C17.9395 4.93393 17.9099 4.97552 17.8825 5.01852C17.8551 5.06148 17.8298 5.1058 17.8068 5.15131C17.7838 5.19685 17.763 5.24352 17.7446 5.29115C17.7262 5.33877 17.7102 5.38728 17.6966 5.43651C17.683 5.48574 17.6719 5.53561 17.6633 5.58596C17.6547 5.63629 17.6485 5.68702 17.645 5.73797C17.6424 5.77406 17.6411 5.81023 17.6411 5.84641C17.6411 5.89752 17.6437 5.94861 17.6487 5.99946C17.6538 6.0503 17.6614 6.10084 17.6715 6.15091C17.6815 6.20098 17.6941 6.25052 17.7091 6.29932C17.7241 6.34814 17.7415 6.39618 17.7613 6.44324C17.7811 6.49033 17.8032 6.53638 17.8276 6.58124C17.8519 6.62609 17.8784 6.66969 17.9071 6.71187C17.9358 6.75402 17.9665 6.7947 17.9992 6.83376C18.0319 6.87286 18.0665 6.91028 18.1029 6.94589C18.1393 6.98148 18.1775 7.01521 18.2173 7.04696C18.2571 7.07874 18.2984 7.10849 18.3411 7.1361C18.3838 7.16372 18.4279 7.18917 18.4732 7.21235C18.5184 7.23554 18.5647 7.25645 18.612 7.27498C18.6593 7.29349 18.7075 7.30961 18.7564 7.32328C18.8054 7.33692 18.8549 7.34809 18.9049 7.35675C18.9549 7.36545 19.0054 7.37163 19.056 7.37525C19.0918 7.37782 19.1278 7.3791 19.1637 7.3791C19.2145 7.37911 19.2652 7.37657 19.3157 7.37149C19.3662 7.36638 19.4165 7.35874 19.4662 7.34858C19.516 7.33844 19.5652 7.3258 19.6137 7.3107C19.6621 7.2956 19.7099 7.27806 19.7566 7.25816C19.8034 7.23826 19.8491 7.21602 19.8936 7.19153C19.9382 7.16702 19.9815 7.14029 20.0234 7.11144C20.0653 7.0826 20.1057 7.05167 20.1446 7.01877C20.1834 6.98585 20.2205 6.95099 20.2559 6.91433C20.2913 6.87768 20.3248 6.83927 20.3563 6.79925C20.3879 6.75922 20.4174 6.71762 20.4448 6.67462C20.4722 6.63163 20.4975 6.58729 20.5205 6.54175C20.5436 6.49622 20.5643 6.44955 20.5827 6.40192C20.6011 6.3543 20.6171 6.30578 20.6307 6.25655C20.6443 6.20733 20.6554 6.15745 20.664 6.10711C20.6727 6.05677 20.6788 6.00604 20.6824 5.95509C20.6849 5.919 20.6862 5.88283 20.6862 5.84665C20.6862 5.79556 20.6837 5.74451 20.6786 5.69368C20.6735 5.64285 20.666 5.5923 20.6559 5.54223C20.6458 5.49216 20.6332 5.44263 20.6182 5.39382C20.6032 5.345 20.5858 5.29697 20.566 5.2499C20.5462 5.20282 20.5241 5.15676 20.4998 5.1119C20.4754 5.06705 20.4489 5.02346 20.4202 4.98128C20.3916 4.9391 20.3608 4.89839 20.3281 4.8593C20.2954 4.82021 20.2608 4.78279 20.2244 4.74717C20.188 4.71158 20.1498 4.67785 20.1101 4.6461C20.0703 4.61435 20.029 4.58463 19.9862 4.55704C19.9435 4.52942 19.8994 4.50397 19.8542 4.48079C19.8089 4.4576 19.7626 4.4367 19.7153 4.41816C19.668 4.39965 19.6198 4.38353 19.5709 4.36987C19.522 4.3562 19.4724 4.345 19.4224 4.33631C19.3724 4.32764 19.322 4.32149 19.2713 4.31789C19.2355 4.31533 19.1996 4.31405 19.1636 4.31405V4.31396Z" fill="#298FFE"/>
<path d="M11.2987 0.0226939C10.6033 0.0215726 9.98277 0.0244554 9.42534 0.0323043L7.93086 0.0723494C7.48812 0.091571 7.09696 0.116637 6.74584 0.149074C6.57029 0.165252 6.40466 0.183353 6.24768 0.203295C6.0983 0.222123 5.94933 0.244047 5.80086 0.26905C5.6595 0.293078 5.52535 0.319025 5.39672 0.347217C5.2681 0.375409 5.14524 0.405844 5.02671 0.438521C4.91083 0.470474 4.79586 0.505621 4.68192 0.543921C4.57027 0.581563 4.46135 0.621448 4.35379 0.664056C4.13867 0.749272 3.92883 0.844898 3.71275 0.952059C3.54648 1.03455 3.39287 1.11809 3.24694 1.20651C3.10102 1.29493 2.96278 1.38831 2.82743 1.49003C2.68804 1.59529 2.55368 1.70706 2.42482 1.82496C2.2901 1.94766 2.15251 2.08261 2.00955 2.23342C1.82991 2.42188 1.67381 2.59759 1.53525 2.77003C1.46598 2.85621 1.4011 2.94142 1.33999 3.02712C1.27956 3.11157 1.22179 3.1979 1.16676 3.28597C1.1123 3.37327 1.06072 3.46217 1.01138 3.55363C0.961279 3.64667 0.913925 3.74116 0.869383 3.83699C0.778241 4.03273 0.693185 4.24353 0.608289 4.47883C0.545308 4.65279 0.488911 4.82906 0.439219 5.00727C0.388522 5.18939 0.343431 5.37993 0.303225 5.586C0.26302 5.79207 0.227941 6.01368 0.197106 6.25876C0.163878 6.5274 0.137333 6.79683 0.117496 7.06679C0.0950709 7.3636 0.07649 7.69021 0.0612728 8.05374L0.0252323 9.26246L0.00585043 10.7359L0.000244141 12.5168L0.0166626 15.1067L0.0679203 17.0689L0.107405 17.8354L0.156741 18.4705C0.172556 18.6417 0.192343 18.8125 0.216087 18.9828C0.237712 19.134 0.260938 19.2663 0.285926 19.3808C0.336629 19.6137 0.396584 19.8444 0.465648 20.0725C0.531777 20.2908 0.607401 20.5062 0.692304 20.718C0.775758 20.9254 0.867061 21.1255 0.966373 21.318C1.06568 21.5106 1.17301 21.6956 1.28834 21.8733C1.40367 22.051 1.527 22.2215 1.65867 22.3846C1.79019 22.5478 1.93008 22.704 2.07779 22.8527C2.22571 23.0016 2.38173 23.1434 2.54615 23.2781C2.71252 23.4143 2.88546 23.5424 3.06434 23.6617C3.23036 23.7727 3.39463 23.8744 3.5601 23.9677C3.72556 24.061 3.89247 24.1456 4.06402 24.2226C4.23558 24.2996 4.41145 24.3688 4.59518 24.4312C4.77891 24.4935 4.97032 24.5489 5.17263 24.5981C5.37494 24.6472 5.5891 24.6904 5.81576 24.728C6.04241 24.7657 6.28469 24.798 6.54354 24.8258C6.80239 24.8535 7.07854 24.8765 7.37527 24.8958C7.67201 24.915 7.98917 24.9304 8.32995 24.9427C8.85638 24.9617 9.65328 24.9729 10.5722 24.9771L13.5472 24.9711L16.3643 24.9316L17.4354 24.9015L18.1332 24.8656C18.283 24.8535 18.4296 24.839 18.571 24.8221C18.7124 24.8053 18.852 24.7859 18.9878 24.764C19.1236 24.7421 19.2564 24.7176 19.3869 24.6903C19.5158 24.6635 19.6441 24.6335 19.7716 24.6004C19.8979 24.5683 20.0223 24.5319 20.1455 24.4932C20.2687 24.4545 20.3906 24.4127 20.5118 24.3679C20.6336 24.3227 20.7544 24.2746 20.8739 24.2236C20.9943 24.1724 21.1145 24.1176 21.2351 24.0595C21.4204 23.9702 21.5695 23.8958 21.7005 23.8232C21.8236 23.7556 21.9423 23.6801 22.0556 23.597C22.1674 23.5147 22.2785 23.421 22.4067 23.3029C22.5348 23.1849 22.68 23.0426 22.8598 22.8627C23.0179 22.7048 23.1511 22.5675 23.2661 22.4427C23.381 22.3178 23.4778 22.2054 23.5627 22.0972C23.6436 21.9944 23.719 21.8874 23.7886 21.7766C23.8564 21.6685 23.9189 21.5562 23.9825 21.4317C24.0783 21.2443 24.1635 21.0707 24.2399 20.9033C24.314 20.7419 24.3817 20.5776 24.4428 20.4109C24.503 20.2454 24.5552 20.0772 24.5991 19.9067C24.6443 19.7313 24.6832 19.5461 24.7168 19.343C24.7505 19.1399 24.7789 18.9189 24.8035 18.672C24.8282 18.4252 24.8492 18.1524 24.8676 17.8459L24.9165 16.817L24.9584 15.5374L24.9884 14.1118L24.9999 12.6211L24.9732 9.69343L24.9374 8.38211L24.8885 7.2562L24.8277 6.37841C24.8056 6.13414 24.7817 5.94176 24.7564 5.81169C24.7284 5.66798 24.6971 5.52493 24.6625 5.38265C24.6289 5.24421 24.5919 5.1066 24.5516 4.96995C24.5123 4.83681 24.4696 4.7047 24.4236 4.57374C24.3781 4.44439 24.3299 4.31777 24.2794 4.19387C24.229 4.06997 24.1744 3.94896 24.1175 3.8305C24.0606 3.71205 24.001 3.59648 23.9385 3.48355C23.8759 3.37062 23.8108 3.2605 23.7426 3.1531C23.6744 3.0457 23.6035 2.94102 23.5296 2.83915C23.4561 2.7376 23.3794 2.63837 23.2997 2.54161C23.2204 2.44538 23.1381 2.35168 23.0529 2.26065C22.9678 2.16974 22.8798 2.08154 22.7891 1.9962C22.6984 1.91082 22.6049 1.82817 22.5085 1.74824C22.4117 1.66804 22.3125 1.59088 22.2109 1.51686C22.1082 1.44208 22.0033 1.37044 21.8963 1.30206C21.7878 1.23269 21.6773 1.16656 21.5649 1.10375C21.4505 1.03989 21.3343 0.979313 21.2165 0.922105C21.0209 0.827038 20.84 0.742705 20.6625 0.667901C20.488 0.593662 20.31 0.527726 20.1292 0.470317C19.9474 0.413053 19.7582 0.363958 19.55 0.32159C19.3417 0.279222 19.1147 0.243903 18.8577 0.213869C18.6006 0.183835 18.3137 0.159568 17.9855 0.139385C17.6573 0.119203 17.2881 0.103343 16.8666 0.0905291L15.4341 0.0584935L13.6211 0.0371095L11.2995 0.0228527L11.2987 0.0226939ZM12.5044 2.22533L15.8524 2.2444L17.1154 2.26874C17.4633 2.27851 17.7287 2.28997 17.8843 2.30318C18.0869 2.32024 18.28 2.34163 18.4646 2.36725C18.6417 2.39172 18.818 2.42214 18.9932 2.45848C19.1614 2.49372 19.3218 2.53376 19.4753 2.57893C19.6288 2.6241 19.7755 2.67472 19.9162 2.7307C20.0569 2.78669 20.1915 2.84828 20.321 2.91571C20.4494 2.98264 20.5743 3.05629 20.695 3.13636C20.8151 3.21605 20.9309 3.30191 21.0434 3.39441C21.1558 3.48692 21.2648 3.58607 21.3713 3.69211C21.4837 3.80399 21.5873 3.91796 21.6828 4.03553C21.778 4.15238 21.8661 4.27484 21.9466 4.40227C22.028 4.53151 22.1013 4.66564 22.1662 4.80392C22.2325 4.94488 22.2921 5.09385 22.3456 5.25218C22.3991 5.41052 22.4467 5.57879 22.4889 5.75859C22.5331 5.94922 22.5702 6.14144 22.5999 6.33484C22.632 6.53987 22.6594 6.75852 22.6826 6.99262C22.7058 7.22673 22.725 7.47637 22.7409 7.74347C22.7536 7.95771 22.7646 8.24043 22.774 8.57433L22.7974 9.71281L22.8154 12.5016L22.795 15.2877L22.7705 16.4228L22.7367 17.2485C22.7134 17.6351 22.6887 17.9601 22.6592 18.243C22.6444 18.3844 22.6284 18.5153 22.6106 18.6381C22.594 18.7541 22.5742 18.8696 22.5514 18.9845C22.5306 19.0894 22.5064 19.1936 22.4789 19.2969C22.4526 19.3955 22.423 19.4932 22.3901 19.5898C22.357 19.6868 22.321 19.7829 22.2821 19.8778C22.241 19.978 22.1976 20.0772 22.1519 20.1755C22.1113 20.2632 22.0686 20.3485 22.0235 20.4315C21.9788 20.5137 21.9314 20.5944 21.8812 20.6734C21.8316 20.7516 21.7795 20.8277 21.725 20.9013C21.6709 20.9746 21.6141 21.046 21.5548 21.1153C21.4956 21.1842 21.434 21.251 21.37 21.3155C21.3059 21.38 21.2395 21.4422 21.1706 21.5022C21.1017 21.5623 21.0303 21.62 20.9563 21.6756C20.8824 21.7311 20.8059 21.7845 20.7269 21.8356C20.6478 21.8867 20.5663 21.9357 20.4821 21.9825C20.3979 22.0292 20.3111 22.0739 20.2218 22.1165C20.131 22.1596 20.0389 22.2001 19.9456 22.2377C19.8492 22.2766 19.7517 22.3128 19.6533 22.3462C19.453 22.4145 19.2418 22.4744 19.0195 22.526C18.7878 22.5796 18.5539 22.6233 18.3186 22.6572C18.2281 22.6704 18.0201 22.6829 17.7221 22.6944L16.5868 22.726L13.3679 22.7678L9.99887 22.773L8.67578 22.7589L7.81665 22.7322L7.18314 22.6877C6.98644 22.6711 6.80351 22.6527 6.63212 22.6318C6.46072 22.6109 6.3011 22.5876 6.15093 22.5613C6.00863 22.5367 5.86719 22.5073 5.72686 22.4732C5.5989 22.4421 5.47226 22.4058 5.34723 22.3644C5.22669 22.3244 5.11144 22.2803 4.99932 22.2319C4.88719 22.1834 4.77827 22.1303 4.67039 22.0723C4.5625 22.0143 4.45574 21.9514 4.34778 21.8828C4.26633 21.831 4.1876 21.7786 4.11184 21.7231C4.03607 21.6676 3.96287 21.6123 3.89239 21.5543C3.82191 21.4963 3.75423 21.4366 3.68896 21.3751C3.62412 21.3139 3.5615 21.2503 3.50123 21.1846C3.44116 21.1191 3.38374 21.0517 3.32863 20.9818C3.27332 20.9117 3.22061 20.8396 3.17062 20.7656C3.11988 20.6905 3.07188 20.6135 3.02669 20.5349C2.98104 20.4556 2.93763 20.3736 2.89639 20.289C2.85445 20.2028 2.81532 20.1153 2.77906 20.0266C2.74221 19.9362 2.70729 19.843 2.67446 19.7468C2.60878 19.5541 2.55112 19.3491 2.50098 19.1305C2.45085 18.9118 2.40808 18.6796 2.37188 18.4321C2.33568 18.1846 2.30652 17.9222 2.2833 17.6433C2.26616 17.4379 2.25254 17.118 2.24213 16.7143L2.22035 15.2787L2.22835 11.619L2.29139 8.1219L2.33944 6.88979L2.36667 6.48253C2.37612 6.37377 2.38589 6.2932 2.3959 6.24482C2.4289 6.08568 2.46214 5.9376 2.4965 5.79896C2.52859 5.66817 2.5643 5.5383 2.60358 5.40948C2.6409 5.2879 2.68022 5.17402 2.72227 5.06613C2.76282 4.96163 2.80801 4.85898 2.8577 4.75851C2.90624 4.6608 2.95838 4.56725 3.015 4.47619C3.07162 4.38513 3.13273 4.29679 3.19937 4.20893C3.266 4.12107 3.33776 4.03433 3.41585 3.94639C3.49394 3.85845 3.57828 3.76963 3.66974 3.67809C3.77633 3.57089 3.88733 3.46815 4.00243 3.37014C4.11112 3.27768 4.22446 3.19083 4.34202 3.10993C4.45759 3.02984 4.57612 2.95856 4.69954 2.89305C4.82296 2.82753 4.95126 2.76835 5.08621 2.71509C5.22117 2.66183 5.36293 2.61417 5.5131 2.57092C5.67086 2.52667 5.83037 2.48892 5.99123 2.45776C6.16039 2.4246 6.34003 2.39569 6.53184 2.37046C6.72366 2.34523 6.92773 2.32344 7.1459 2.30454C7.29807 2.29141 7.56028 2.27972 7.90555 2.26986L9.16217 2.24504L12.505 2.22461L12.5044 2.22533Z" fill="url(#paint0_radial_207_1559)"/>
</g>
<defs>
<radialGradient id="paint0_radial_207_1559" cx="0" cy="0" r="1" gradientUnits="userSpaceOnUse" gradientTransform="translate(3.98313 26.7962) rotate(-9.53101) scale(52.8364 32.0714)">
<stop stop-color="#298FFE"/>
</radialGradient>
<clipPath id="clip0_207_1559">
<rect width="25" height="25" fill="white"/>
</clipPath>
</defs>
</svg>
