<svg width="25" height="25" viewBox="0 0 25 25" fill="none" xmlns="http://www.w3.org/2000/svg">
<g clip-path="url(#clip0_207_1560)">
<path d="M12.5 25C19.4036 25 25 19.4036 25 12.5C25 5.59644 19.4036 0 12.5 0C5.59644 0 0 5.59644 0 12.5C0 19.4036 5.59644 25 12.5 25Z" fill="#298FFE"/>
<path d="M10.2084 18.2291C9.80341 18.2291 9.87227 18.0762 9.73258 17.6905L8.54175 13.7715L17.7084 8.33325" fill="#C8DAEA"/>
<path d="M10.2083 18.2293C10.5208 18.2293 10.6588 18.0863 10.8333 17.9168L12.4999 16.2961L10.421 15.0425" fill="#A9C9DD"/>
<path d="M10.4208 15.0428L15.4583 18.7645C16.0332 19.0817 16.448 18.9174 16.5913 18.2309L18.6418 8.56807C18.8517 7.7264 18.3209 7.34453 17.7709 7.59422L5.73032 12.237C4.90845 12.5667 4.91334 13.0253 5.58053 13.2295L8.67043 14.194L15.8239 9.68099C16.1616 9.4762 16.4716 9.5862 16.2172 9.81203" fill="white"/>
</g>
<defs>
<clipPath id="clip0_207_1560">
<rect width="25" height="25" fill="white"/>
</clipPath>
</defs>
</svg>
