<svg width="30" height="24" viewBox="0 0 30 24" fill="none" xmlns="http://www.w3.org/2000/svg">
<g clip-path="url(#clip0_207_1558)">
<path d="M26.8487 6.03422C26.8668 6.28952 26.8668 6.54481 26.8668 6.80246C26.8668 14.653 20.7217 23.7072 9.48496 23.7072V23.7025C6.16561 23.7072 2.9152 22.7825 0.12085 21.0389C0.603511 21.0954 1.08859 21.1236 1.57488 21.1248C4.32569 21.1272 6.99786 20.2295 9.16198 18.5766C6.54786 18.5283 4.25553 16.8707 3.45472 14.4507C4.37045 14.6225 5.31399 14.5872 6.21278 14.3483C3.36278 13.7883 1.31238 11.353 1.31238 8.52481C1.31238 8.49893 1.31238 8.47423 1.31238 8.44952C2.16158 8.90952 3.11238 9.16481 4.08496 9.19305C1.40069 7.44834 0.573269 3.9754 2.19424 1.26011C5.29585 4.97187 9.87206 7.22834 14.7846 7.46717C14.2922 5.40364 14.9648 3.24128 16.5519 1.7907C19.0124 -0.458716 22.8821 -0.343422 25.195 2.04834C26.5632 1.78599 27.8745 1.29775 29.0745 0.60599C28.6184 1.98128 27.664 3.14952 26.389 3.89187C27.5999 3.75305 28.7829 3.43775 29.8971 2.95658C29.0769 4.15187 28.0438 5.19305 26.8487 6.03422Z" fill="#298FFE"/>
</g>
<defs>
<clipPath id="clip0_207_1558">
<rect width="30" height="24" fill="white"/>
</clipPath>
</defs>
</svg>
