<svg width="35" height="24" viewBox="0 0 35 24" fill="none" xmlns="http://www.w3.org/2000/svg">
<path d="M18.2754 23.9686L11.0948 23.8384C8.76983 23.793 6.43911 23.8836 4.15976 23.4136C0.692349 22.7114 0.446705 19.2684 0.189665 16.3804C-0.16451 12.3203 -0.0273985 8.18645 0.640976 4.16018C1.0183 1.90103 2.5032 0.552974 4.79956 0.406281C12.5514 -0.126093 20.3549 -0.0630013 28.0896 0.18537C28.9065 0.208139 29.7289 0.332586 30.5344 0.474239C34.5105 1.16513 34.6075 5.06677 34.8652 8.35122C35.1222 11.6696 35.0137 15.0049 34.5224 18.3007C34.1283 21.0295 33.3741 23.3178 30.1917 23.5387C26.2042 23.8276 22.3083 24.0602 18.3096 23.9861C18.3098 23.9686 18.2868 23.9686 18.2754 23.9686ZM14.0539 17.06C17.0588 15.3498 20.0063 13.668 22.994 11.9692C19.9835 10.2589 17.0416 8.57717 14.0539 6.87837V17.06Z" fill="#298FFE"/>
</svg>
